<svg xmlns="http://www.w3.org/2000/svg" viewBox="0 0 1200 900" role="img" aria-labelledby="title desc">
  <title id="title">Promotional products mockup</title>
  <desc id="desc">Premium merch mockup with tote bag, mug, shirt and branded stationery.</desc>
  <defs>
    <linearGradient id="bg" x1="0" y1="0" x2="1" y2="1">
      <stop offset="0%" stop-color="#08172A"/>
      <stop offset="50%" stop-color="#133D66"/>
      <stop offset="100%" stop-color="#197389"/>
    </linearGradient>
    <linearGradient id="accent" x1="0" y1="0" x2="1" y2="1">
      <stop offset="0%" stop-color="#F2C85E"/>
      <stop offset="100%" stop-color="#FF8A63"/>
    </linearGradient>
    <linearGradient id="light" x1="0" y1="0" x2="1" y2="1">
      <stop offset="0%" stop-color="#FFFFFF"/>
      <stop offset="100%" stop-color="#E5EEF6"/>
    </linearGradient>
    <filter id="shadow" x="-20%" y="-20%" width="140%" height="140%">
      <feDropShadow dx="0" dy="16" stdDeviation="18" flood-color="#04111E" flood-opacity="0.34"/>
    </filter>
  </defs>
  <rect width="1200" height="900" rx="48" fill="url(#bg)"/>
  <g opacity="0.1">
    <path d="M120 160h960M120 260h960M120 360h960M120 460h960M120 560h960M120 660h960" stroke="#FFFFFF" stroke-width="2"/>
  </g>
  <g filter="url(#shadow)">
    <path d="M168 266c0-22 18-40 40-40h136c22 0 40 18 40 40v246c0 22-18 40-40 40H236l-38 70-30-70h-0c-22 0-40-18-40-40V266z" fill="url(#light)"/>
    <rect x="214" y="286" width="156" height="12" rx="6" fill="#C2D0DE"/>
    <rect x="214" y="316" width="110" height="12" rx="6" fill="#C2D0DE"/>
    <rect x="214" y="358" width="132" height="132" rx="20" fill="#0F355C"/>
    <rect x="220" y="460" width="120" height="14" rx="7" fill="#C2D0DE"/>
  </g>
  <g filter="url(#shadow)">
    <rect x="468" y="214" width="248" height="356" rx="28" fill="#FFFFFF"/>
    <path d="M522 246h140l16 120-26 154H532l-22-154 12-120z" fill="#0F355C"/>
    <rect x="548" y="274" width="84" height="20" rx="10" fill="url(#accent)"/>
    <rect x="540" y="316" width="100" height="14" rx="7" fill="#8EA1B4"/>
  </g>
  <g filter="url(#shadow)">
    <rect x="786" y="236" width="248" height="312" rx="28" fill="#F8FBFD"/>
    <rect x="820" y="270" width="180" height="136" rx="20" fill="#DDE7F0"/>
    <rect x="850" y="438" width="120" height="34" rx="17" fill="url(#accent)"/>
    <circle cx="910" cy="336" r="38" fill="#0F355C"/>
  </g>
  <g filter="url(#shadow)">
    <rect x="420" y="614" width="356" height="124" rx="28" fill="#F8FBFD"/>
    <rect x="452" y="648" width="124" height="16" rx="8" fill="#0F355C"/>
    <rect x="452" y="678" width="252" height="14" rx="7" fill="#C2D0DE"/>
    <rect x="636" y="638" width="84" height="56" rx="18" fill="url(#accent)"/>
  </g>
</svg>