<svg xmlns="http://www.w3.org/2000/svg" viewBox="0 0 1200 900" role="img" aria-labelledby="title desc">
  <title id="title">Social media marketing mockup</title>
  <desc id="desc">Premium social content mockup with phone feed, story cards and analytics panels.</desc>
  <defs>
    <linearGradient id="bg" x1="0" y1="0" x2="1" y2="1">
      <stop offset="0%" stop-color="#081529"/>
      <stop offset="50%" stop-color="#113D67"/>
      <stop offset="100%" stop-color="#17748A"/>
    </linearGradient>
    <linearGradient id="accent" x1="0" y1="0" x2="1" y2="1">
      <stop offset="0%" stop-color="#F2C85D"/>
      <stop offset="100%" stop-color="#FF8A62"/>
    </linearGradient>
    <linearGradient id="screen" x1="0" y1="0" x2="0" y2="1">
      <stop offset="0%" stop-color="#FFFFFF"/>
      <stop offset="100%" stop-color="#E8F0F7"/>
    </linearGradient>
    <filter id="shadow" x="-20%" y="-20%" width="140%" height="140%">
      <feDropShadow dx="0" dy="16" stdDeviation="18" flood-color="#04111E" flood-opacity="0.34"/>
    </filter>
  </defs>
  <rect width="1200" height="900" rx="48" fill="url(#bg)"/>
  <g opacity="0.1">
    <path d="M110 160h980M110 260h980M110 360h980M110 460h980M110 560h980M110 660h980" stroke="#FFFFFF" stroke-width="2"/>
  </g>
  <g filter="url(#shadow)">
    <rect x="168" y="214" width="308" height="438" rx="40" fill="#0A1B31"/>
    <rect x="190" y="244" width="264" height="376" rx="30" fill="url(#screen)"/>
    <rect x="220" y="276" width="152" height="18" rx="9" fill="#0F355C"/>
    <rect x="220" y="310" width="192" height="148" rx="24" fill="#DDE7F0"/>
    <rect x="220" y="478" width="152" height="18" rx="9" fill="#B7C7D6"/>
    <rect x="220" y="508" width="180" height="18" rx="9" fill="#B7C7D6"/>
    <rect x="220" y="548" width="100" height="34" rx="17" fill="url(#accent)"/>
  </g>
  <g filter="url(#shadow)">
    <rect x="554" y="180" width="500" height="230" rx="32" fill="#F8FBFD"/>
    <rect x="584" y="212" width="438" height="32" rx="14" fill="#0F355C"/>
    <rect x="584" y="264" width="126" height="112" rx="22" fill="#DDE7F0"/>
    <rect x="726" y="264" width="126" height="112" rx="22" fill="#DDE7F0"/>
    <rect x="868" y="264" width="126" height="112" rx="22" fill="#DDE7F0"/>
    <circle cx="646" cy="320" r="28" fill="url(#accent)"/>
  </g>
  <g filter="url(#shadow)">
    <rect x="560" y="456" width="520" height="230" rx="32" fill="#0A1B31"/>
    <rect x="590" y="488" width="460" height="166" rx="26" fill="#163E66"/>
    <rect x="624" y="524" width="112" height="18" rx="9" fill="#FFFFFF"/>
    <rect x="624" y="556" width="258" height="14" rx="7" fill="#BFD1E0"/>
    <rect x="624" y="582" width="192" height="14" rx="7" fill="#BFD1E0"/>
    <rect x="900" y="522" width="110" height="92" rx="22" fill="url(#accent)"/>
  </g>
</svg>