<svg xmlns="http://www.w3.org/2000/svg" viewBox="0 0 1200 900" role="img" aria-labelledby="title desc">
  <title id="title">GIDAPRINT hero communication mockup</title>
  <desc id="desc">Premium visual mockup combining print, signage, web and social content on a studio desk.</desc>
  <defs>
    <linearGradient id="bg" x1="0" y1="0" x2="1" y2="1">
      <stop offset="0%" stop-color="#0B1630"/>
      <stop offset="55%" stop-color="#103A64"/>
      <stop offset="100%" stop-color="#0B6B8F"/>
    </linearGradient>
    <linearGradient id="accent" x1="0" y1="0" x2="1" y2="1">
      <stop offset="0%" stop-color="#F4C95D"/>
      <stop offset="100%" stop-color="#FF8A5B"/>
    </linearGradient>
    <linearGradient id="paper" x1="0" y1="0" x2="0" y2="1">
      <stop offset="0%" stop-color="#FFFFFF"/>
      <stop offset="100%" stop-color="#EAF2F8"/>
    </linearGradient>
    <filter id="shadow" x="-20%" y="-20%" width="140%" height="140%">
      <feDropShadow dx="0" dy="18" stdDeviation="22" flood-color="#04111E" flood-opacity="0.35"/>
    </filter>
  </defs>
  <rect width="1200" height="900" rx="48" fill="url(#bg)"/>
  <g opacity="0.14">
    <path d="M85 180h1030M85 280h1030M85 380h1030M85 480h1030M85 580h1030" stroke="#FFFFFF" stroke-width="2"/>
    <path d="M150 90v720M340 90v720M530 90v720M720 90v720M910 90v720M1100 90v720" stroke="#FFFFFF" stroke-width="2"/>
  </g>
  <rect x="90" y="120" width="1020" height="660" rx="36" fill="#F4F8FB" opacity="0.08"/>
  <g filter="url(#shadow)">
    <rect x="125" y="240" width="380" height="420" rx="30" fill="url(#paper)"/>
    <rect x="151" y="268" width="328" height="72" rx="18" fill="#0F355C"/>
    <circle cx="202" cy="304" r="24" fill="url(#accent)"/>
    <rect x="244" y="288" width="160" height="14" rx="7" fill="#7A8CA5"/>
    <rect x="244" y="312" width="104" height="10" rx="5" fill="#A7B6C7"/>
    <rect x="150" y="364" width="172" height="192" rx="18" fill="#E8EEF4"/>
    <rect x="340" y="364" width="140" height="56" rx="14" fill="#DDE7F0"/>
    <rect x="340" y="434" width="140" height="56" rx="14" fill="#DDE7F0"/>
    <rect x="340" y="504" width="140" height="56" rx="14" fill="#DDE7F0"/>
    <rect x="150" y="576" width="330" height="54" rx="14" fill="#0F355C"/>
  </g>
  <g filter="url(#shadow)">
    <rect x="560" y="180" width="520" height="340" rx="30" fill="#081A2D"/>
    <rect x="586" y="208" width="468" height="234" rx="20" fill="#163E66"/>
    <rect x="624" y="240" width="178" height="160" rx="18" fill="#F5FAFD"/>
    <rect x="826" y="240" width="190" height="60" rx="16" fill="#FFFFFF" opacity="0.95"/>
    <rect x="826" y="320" width="190" height="60" rx="16" fill="#FFFFFF" opacity="0.82"/>
    <rect x="826" y="400" width="190" height="34" rx="12" fill="url(#accent)"/>
    <rect x="560" y="520" width="520" height="80" rx="22" fill="#E9F3FB"/>
    <rect x="588" y="548" width="136" height="18" rx="9" fill="#0F355C"/>
    <rect x="738" y="548" width="164" height="18" rx="9" fill="#7A8CA5"/>
    <rect x="910" y="548" width="138" height="18" rx="9" fill="#7A8CA5"/>
  </g>
  <g filter="url(#shadow)">
    <rect x="520" y="614" width="180" height="124" rx="28" fill="#FFFFFF"/>
    <rect x="556" y="638" width="108" height="22" rx="11" fill="#0F355C"/>
    <rect x="548" y="672" width="124" height="14" rx="7" fill="#C8D4E0"/>
    <rect x="548" y="696" width="84" height="14" rx="7" fill="#C8D4E0"/>
  </g>
  <g filter="url(#shadow)">
    <rect x="742" y="614" width="310" height="124" rx="28" fill="#F7FBFD"/>
    <rect x="776" y="646" width="88" height="18" rx="9" fill="#0F355C"/>
    <rect x="776" y="678" width="232" height="16" rx="8" fill="#D7E1EA"/>
    <rect x="776" y="704" width="186" height="16" rx="8" fill="#D7E1EA"/>
    <circle cx="1002" cy="680" r="28" fill="url(#accent)"/>
  </g>
</svg>