<svg xmlns="http://www.w3.org/2000/svg" viewBox="0 0 1200 900" role="img" aria-labelledby="title desc">
  <title id="title">Portfolio collage mockup</title>
  <desc id="desc">Premium collage combining print, signage, web and social mockups for portfolio presentation.</desc>
  <defs>
    <linearGradient id="bg" x1="0" y1="0" x2="1" y2="1">
      <stop offset="0%" stop-color="#081529"/>
      <stop offset="50%" stop-color="#123E68"/>
      <stop offset="100%" stop-color="#17758A"/>
    </linearGradient>
    <linearGradient id="paper" x1="0" y1="0" x2="1" y2="1">
      <stop offset="0%" stop-color="#FFFFFF"/>
      <stop offset="100%" stop-color="#E7F0F7"/>
    </linearGradient>
    <linearGradient id="accent" x1="0" y1="0" x2="1" y2="1">
      <stop offset="0%" stop-color="#F2C85D"/>
      <stop offset="100%" stop-color="#FF8A62"/>
    </linearGradient>
    <filter id="shadow" x="-20%" y="-20%" width="140%" height="140%">
      <feDropShadow dx="0" dy="16" stdDeviation="18" flood-color="#04111E" flood-opacity="0.34"/>
    </filter>
  </defs>
  <rect width="1200" height="900" rx="48" fill="url(#bg)"/>
  <g opacity="0.1"><path d="M110 150h980M110 250h980M110 350h980M110 450h980M110 550h980M110 650h980" stroke="#FFFFFF" stroke-width="2"/></g>
  <g filter="url(#shadow)">
    <rect x="142" y="184" width="296" height="192" rx="26" fill="url(#paper)"/>
    <rect x="166" y="210" width="200" height="20" rx="10" fill="#0F355C"/>
    <rect x="166" y="246" width="240" height="100" rx="18" fill="#DDE7F0"/>
  </g>
  <g filter="url(#shadow)">
    <rect x="482" y="164" width="300" height="214" rx="28" fill="#0A1B31"/>
    <rect x="512" y="192" width="240" height="158" rx="22" fill="url(#paper)"/>
    <rect x="542" y="222" width="160" height="18" rx="9" fill="#0F355C"/>
    <rect x="542" y="256" width="186" height="14" rx="7" fill="#B7C7D6"/>
  </g>
  <g filter="url(#shadow)">
    <rect x="836" y="184" width="220" height="192" rx="26" fill="#F8FBFD"/>
    <rect x="864" y="212" width="164" height="124" rx="20" fill="#DDE7F0"/>
    <circle cx="946" cy="274" r="24" fill="url(#accent)"/>
  </g>
  <g filter="url(#shadow)">
    <rect x="174" y="434" width="288" height="248" rx="28" fill="#F8FBFD"/>
    <rect x="202" y="464" width="234" height="180" rx="22" fill="#DDE7F0"/>
    <rect x="202" y="482" width="110" height="16" rx="8" fill="#0F355C"/>
  </g>
  <g filter="url(#shadow)">
    <rect x="516" y="418" width="328" height="300" rx="32" fill="#0A1B31"/>
    <rect x="544" y="450" width="272" height="236" rx="24" fill="url(#paper)"/>
    <rect x="574" y="482" width="160" height="18" rx="9" fill="#0F355C"/>
    <rect x="574" y="514" width="204" height="14" rx="7" fill="#B7C7D6"/>
    <rect x="574" y="542" width="180" height="14" rx="7" fill="#B7C7D6"/>
    <rect x="574" y="582" width="96" height="34" rx="17" fill="url(#accent)"/>
  </g>
  <g filter="url(#shadow)">
    <rect x="874" y="432" width="196" height="244" rx="28" fill="url(#paper)"/>
    <rect x="902" y="466" width="140" height="170" rx="20" fill="#DDE7F0"/>
    <rect x="912" y="478" width="120" height="14" rx="7" fill="#0F355C"/>
  </g>
</svg>